<svg xmlns="http://www.w3.org/2000/svg" viewBox="0 0 100 100">
  <rect width="100" height="100" rx="14" fill="#060A18"/>
  <path d="M50 12 C50 12 35 20 28 30 C24 37 25 43 30 46 C25 48 22 54 25 60 C28 66 35 67 40 64 C40 68 42 73 44 76 L50 85 L56 76 C58 73 60 68 60 64 C65 67 72 66 75 60 C78 54 75 48 70 46 C75 43 76 37 72 30 C65 20 50 12 50 12Z" fill="#00E5FF"/>
  <path d="M44 76 L41 88 L50 83 L59 88 L56 76" fill="#00E5FF"/>
  <path d="M38 46 C38 46 42 52 50 52 C58 52 62 46 62 46" fill="none" stroke="#060A18" stroke-width="2"/>
</svg>
